<?xml version="1.0" encoding="utf-8"?>
<!-- Generator: Adobe Illustrator 16.0.0, SVG Export Plug-In . SVG Version: 6.00 Build 0)  -->
<!DOCTYPE svg PUBLIC "-//W3C//DTD SVG 1.1//EN" "http://www.w3.org/Graphics/SVG/1.1/DTD/svg11.dtd">
<svg version="1.1" id="Layer_1" xmlns="http://www.w3.org/2000/svg" xmlns:xlink="http://www.w3.org/1999/xlink" x="0px" y="0px"
	 width="630px" height="405px" viewBox="0 0 630 405" enable-background="new 0 0 630 405" xml:space="preserve">
<g>
	<path fill="none" stroke="#5D6A70" stroke-width="2" stroke-miterlimit="10" d="M424.913,81.614
		c-0.045,18.953,7.042,37.222,19.692,50.685c12.663,13.468,29.863,21.052,47.788,21.111c17.935,0.043,35.155-7.46,47.856-20.837
		c12.715-13.405,19.866-31.588,19.898-50.596c0.059-18.98-7.015-37.216-19.671-50.686C527.82,17.83,510.639,10.224,492.71,10.179
		c-17.946-0.059-35.166,7.45-47.871,20.832C432.128,44.422,424.973,62.651,424.913,81.614z"/>
	<path fill="none" stroke="#5D6A70" stroke-width="2" stroke-miterlimit="10" d="M424.913,81.614
		c-0.045,18.953,7.042,37.222,19.692,50.685c12.663,13.468,29.863,21.052,47.788,21.111c17.935,0.043,35.155-7.46,47.856-20.837
		c12.715-13.405,19.866-31.588,19.898-50.596c0.059-18.98-7.015-37.216-19.671-50.686C527.82,17.83,510.639,10.224,492.71,10.179
		c-17.946-0.059-35.166,7.45-47.871,20.832C432.128,44.422,424.973,62.651,424.913,81.614z"/>
</g>
<g opacity="0.5">
	<path fill="none" stroke="#6A605D" stroke-width="2" stroke-linejoin="round" stroke-miterlimit="10" d="M44.507,305.557
		c-0.04,14.924,5.528,29.21,15.459,39.806c9.932,10.568,23.421,16.528,37.502,16.556c14.073,0.053,27.588-5.838,37.562-16.354
		c9.981-10.524,15.623-24.792,15.652-39.706c0.02-14.882-5.524-29.229-15.462-39.792c-9.933-10.567-23.44-16.542-37.504-16.59
		c-14.069-0.03-27.61,5.865-37.586,16.36C50.163,276.381,44.539,290.72,44.507,305.557z"/>
	<path fill="none" stroke="#6A605D" stroke-width="2" stroke-linejoin="round" stroke-miterlimit="10" d="M44.507,305.557
		c-0.04,14.924,5.528,29.21,15.459,39.806c9.932,10.568,23.421,16.528,37.502,16.556c14.073,0.053,27.588-5.838,37.562-16.354
		c9.981-10.524,15.623-24.792,15.652-39.706c0.02-14.882-5.524-29.229-15.462-39.792c-9.933-10.567-23.44-16.542-37.504-16.59
		c-14.069-0.03-27.61,5.865-37.586,16.36C50.163,276.381,44.539,290.72,44.507,305.557z"/>
</g>
<g opacity="0.5">
	<path fill="none" stroke="#B5A5DC" stroke-width="2" stroke-linejoin="round" stroke-miterlimit="10" d="M31.178,142.357
		c-0.036,18.634,6.912,36.538,19.333,49.741c12.433,13.217,29.295,20.675,46.9,20.721c17.604,0.062,34.506-7.31,46.978-20.46
		c12.473-13.127,19.52-31.018,19.566-49.659c0.029-18.668-6.937-36.541-19.344-49.758C132.196,79.73,115.315,72.287,97.71,72.229
		c-17.598-0.046-34.505,7.304-46.98,20.467C38.262,105.837,31.225,123.705,31.178,142.357z"/>
	<path fill="none" stroke="#B5A5DC" stroke-width="2" stroke-linejoin="round" stroke-miterlimit="10" d="M31.178,142.357
		c-0.036,18.634,6.912,36.538,19.333,49.741c12.433,13.217,29.295,20.675,46.9,20.721c17.604,0.062,34.506-7.31,46.978-20.46
		c12.473-13.127,19.52-31.018,19.566-49.659c0.029-18.668-6.937-36.541-19.344-49.758C132.196,79.73,115.315,72.287,97.71,72.229
		c-17.598-0.046-34.505,7.304-46.98,20.467C38.262,105.837,31.225,123.705,31.178,142.357z"/>
</g>
<g opacity="0.5">
	<path fill="none" stroke="#24251B" stroke-width="2" stroke-linejoin="round" stroke-miterlimit="10" d="M469.818,338.501
		c-0.015,8.708,3.229,17.043,9.01,23.21c5.81,6.181,13.676,9.669,21.899,9.691c8.211,0.022,16.105-3.419,21.93-9.562
		c5.832-6.145,9.126-14.463,9.135-23.162c0.008-8.706-3.227-17.122-9.022-23.233c-5.805-6.17-13.673-9.654-21.889-9.682
		c-8.224-0.013-16.134,3.418-21.94,9.55C473.116,321.428,469.831,329.804,469.818,338.501z"/>
	<path fill="none" stroke="#24251B" stroke-width="2" stroke-linejoin="round" stroke-miterlimit="10" d="M469.818,338.501
		c-0.015,8.708,3.229,17.043,9.01,23.21c5.81,6.181,13.676,9.669,21.899,9.691c8.211,0.022,16.105-3.419,21.93-9.562
		c5.832-6.145,9.126-14.463,9.135-23.162c0.008-8.706-3.227-17.122-9.022-23.233c-5.805-6.17-13.673-9.654-21.889-9.682
		c-8.224-0.013-16.134,3.418-21.94,9.55C473.116,321.428,469.831,329.804,469.818,338.501z"/>
</g>
<g>
	<path id="XMLID_1_" fill="none" stroke="#1A5B29" stroke-width="2" stroke-miterlimit="10" d="M213.566,199.632
		c-0.046,23.142,8.556,45.293,23.935,61.658c15.362,16.361,36.234,25.575,58.012,25.639c21.808,0.053,42.728-9.039,58.119-25.341
		c15.526-16.241,24.197-38.359,24.224-61.371c0.059-23.121-8.504-45.279-23.911-61.627c-15.376-16.354-36.241-25.569-58.032-25.637
		c-21.782-0.072-42.705,9.046-58.142,25.328C222.314,154.536,213.615,176.648,213.566,199.632z"/>
</g>
<line fill="none" stroke="#000000" stroke-width="2" stroke-miterlimit="10" x1="392.493" y1="219.59" x2="431.173" y2="219.59"/>
<text transform="matrix(1 0 0 1 392.4932 249.4756)"><tspan x="0" y="0" font-family="'Roboto-Condensed'" font-size="15">Trade &amp;</tspan><tspan x="0" y="18" font-family="'Roboto-Condensed'" font-size="15">Business Associations</tspan><tspan x="131.8" y="18" font-family="'Roboto-Condensed'" font-size="15" letter-spacing="8">	</tspan></text>
<line fill="none" stroke="#000000" stroke-width="2" stroke-miterlimit="10" x1="548" y1="141.729" x2="586.68" y2="141.729"/>
<text transform="matrix(1 0 0 1 549 165.0913)"><tspan x="0" y="0" font-family="'Roboto-Condensed'" font-size="15">Private</tspan><tspan x="0" y="18" font-family="'Roboto-Condensed'" font-size="15">Companies</tspan></text>
<line fill="none" stroke="#000000" stroke-width="2" stroke-miterlimit="10" x1="392.493" y1="328.644" x2="431.173" y2="328.644"/>
<text transform="matrix(1 0 0 1 350.7266 350.2334)"><tspan x="0" y="0" font-family="'Roboto-Condensed'" font-size="15">Think Tanks &amp;</tspan><tspan x="0" y="18" font-family="'Roboto-Condensed'" font-size="15"> Institutions</tspan></text>
<line fill="none" stroke="#000000" stroke-width="2" stroke-miterlimit="10" x1="167.487" y1="78" x2="206.167" y2="78"/>
<text transform="matrix(1 0 0 1 132.7271 51.4043)"><tspan x="0" y="0" font-family="'Roboto-Condensed'" font-size="15">Professional</tspan><tspan x="-9.617" y="18" font-family="'Roboto-Condensed'" font-size="15">Consultancies</tspan></text>
<line fill="none" stroke="#000000" stroke-width="2" stroke-miterlimit="10" x1="152.487" y1="339.04" x2="191.167" y2="339.04"/>
<text transform="matrix(1 0 0 1 153.1235 361.4277)" font-family="'Roboto-Condensed'" font-size="15">NGOs</text>
<g>
	<path opacity="0.5" fill="#B5A5DC" stroke="#362F48" stroke-miterlimit="10" d="M120.521,190.802c3.445,0,6.75-1.37,9.186-3.806
		c2.436-2.435,3.806-5.74,3.806-9.186c0-3.445-1.37-6.75-3.806-9.187c-2.436-2.436-5.741-3.806-9.186-3.806s-6.75,1.37-9.186,3.806
		c-2.437,2.437-3.806,5.741-3.806,9.187c0,3.446,1.369,6.75,3.806,9.186C113.772,189.432,117.076,190.802,120.521,190.802z"/>
	<path opacity="0.5" fill="#B5A5DC" stroke="#362F48" stroke-width="1.2832" stroke-linejoin="round" stroke-miterlimit="10" d="
		M120.521,190.802c3.445,0,6.75-1.37,9.186-3.806c2.436-2.435,3.806-5.74,3.806-9.186c0-3.445-1.37-6.75-3.806-9.187
		c-2.436-2.436-5.741-3.806-9.186-3.806s-6.75,1.37-9.186,3.806c-2.437,2.437-3.806,5.741-3.806,9.187
		c0,3.446,1.369,6.75,3.806,9.186C113.772,189.432,117.076,190.802,120.521,190.802z"/>
</g>
<g>
	<path fill="#ABD6B5" stroke="#1A5B29" stroke-miterlimit="10" d="M312.518,147.15c2.528,0,4.953-1.003,6.741-2.792
		c1.789-1.788,2.794-4.213,2.794-6.742c0-2.528-1.005-4.954-2.794-6.742c-1.788-1.788-4.213-2.792-6.741-2.792
		c-2.529,0-4.954,1.004-6.742,2.792c-1.788,1.788-2.793,4.213-2.793,6.742c0,2.529,1.005,4.954,2.793,6.742
		C307.564,146.147,309.989,147.15,312.518,147.15z"/>
	<path fill="#ABD6B5" stroke="#1A5B29" stroke-miterlimit="10" d="M312.518,147.15c2.528,0,4.953-1.003,6.741-2.792
		c1.789-1.788,2.794-4.213,2.794-6.742c0-2.528-1.005-4.954-2.794-6.742c-1.788-1.788-4.213-2.792-6.741-2.792
		c-2.529,0-4.954,1.004-6.742,2.792c-1.788,1.788-2.793,4.213-2.793,6.742c0,2.529,1.005,4.954,2.793,6.742
		C307.564,146.147,309.989,147.15,312.518,147.15z"/>
</g>
<g>
	<path fill="#ABD6B5" stroke="#1A5B29" stroke-miterlimit="10" d="M285.754,135.969c2.305,0,4.516-0.915,6.145-2.545
		c1.63-1.628,2.546-3.84,2.546-6.144s-0.916-4.514-2.546-6.145c-1.629-1.628-3.84-2.545-6.145-2.545
		c-2.304,0-4.515,0.917-6.144,2.545c-1.629,1.631-2.545,3.841-2.545,6.145s0.916,4.516,2.545,6.144
		C281.239,135.055,283.45,135.969,285.754,135.969z"/>
	<path fill="#ABD6B5" stroke="#1A5B29" stroke-miterlimit="10" d="M285.754,135.969c2.305,0,4.516-0.915,6.145-2.545
		c1.63-1.628,2.546-3.84,2.546-6.144s-0.916-4.514-2.546-6.145c-1.629-1.628-3.84-2.545-6.145-2.545
		c-2.304,0-4.515,0.917-6.144,2.545c-1.629,1.631-2.545,3.841-2.545,6.145s0.916,4.516,2.545,6.144
		C281.239,135.055,283.45,135.969,285.754,135.969z"/>
</g>
<g>
	<path fill="#ABD6B5" stroke="#1A5B29" stroke-miterlimit="10" d="M346.427,175.77c2.054,0,4.026-0.816,5.479-2.27
		c1.455-1.452,2.271-3.423,2.271-5.479c0-2.055-0.815-4.025-2.271-5.479c-1.452-1.452-3.425-2.27-5.479-2.27
		c-2.055,0-4.024,0.818-5.479,2.27c-1.452,1.454-2.27,3.424-2.27,5.479c0,2.056,0.817,4.026,2.27,5.479
		C342.402,174.954,344.372,175.77,346.427,175.77z"/>
	<path fill="#ABD6B5" stroke="#1A5B29" stroke-miterlimit="10" d="M346.427,175.77c2.054,0,4.026-0.816,5.479-2.27
		c1.455-1.452,2.271-3.423,2.271-5.479c0-2.055-0.815-4.025-2.271-5.479c-1.452-1.452-3.425-2.27-5.479-2.27
		c-2.055,0-4.024,0.818-5.479,2.27c-1.452,1.454-2.27,3.424-2.27,5.479c0,2.056,0.817,4.026,2.27,5.479
		C342.402,174.954,344.372,175.77,346.427,175.77z"/>
</g>
<g>
	<path fill="#ABD6B5" stroke="#1A5B29" stroke-miterlimit="10" d="M314.529,183.519c2.055,0,4.025-0.815,5.479-2.27
		c1.453-1.452,2.27-3.423,2.27-5.479c0-2.055-0.816-4.025-2.27-5.478c-1.453-1.454-3.424-2.27-5.479-2.27
		c-2.055,0-4.026,0.816-5.479,2.27c-1.453,1.453-2.268,3.423-2.268,5.478c0,2.056,0.815,4.027,2.268,5.479
		C310.503,182.703,312.474,183.519,314.529,183.519z"/>
	<path fill="#ABD6B5" stroke="#1A5B29" stroke-miterlimit="10" d="M314.529,183.519c2.055,0,4.025-0.815,5.479-2.27
		c1.453-1.452,2.27-3.423,2.27-5.479c0-2.055-0.816-4.025-2.27-5.478c-1.453-1.454-3.424-2.27-5.479-2.27
		c-2.055,0-4.026,0.816-5.479,2.27c-1.453,1.453-2.268,3.423-2.268,5.478c0,2.056,0.815,4.027,2.268,5.479
		C310.503,182.703,312.474,183.519,314.529,183.519z"/>
</g>
<g>
	<path fill="#ABD6B5" stroke="#1A5B29" stroke-miterlimit="10" d="M274.799,156.703c2.056,0,4.027-0.816,5.479-2.27
		c1.454-1.452,2.27-3.423,2.27-5.478c0-2.056-0.816-4.026-2.27-5.479c-1.453-1.452-3.424-2.27-5.479-2.27
		c-2.053,0-4.025,0.817-5.478,2.27c-1.453,1.454-2.269,3.424-2.269,5.479c0,2.055,0.816,4.026,2.269,5.478
		C270.773,155.887,272.746,156.703,274.799,156.703z"/>
	<path fill="#ABD6B5" stroke="#1A5B29" stroke-miterlimit="10" d="M274.799,156.703c2.056,0,4.027-0.816,5.479-2.27
		c1.454-1.452,2.27-3.423,2.27-5.478c0-2.056-0.816-4.026-2.27-5.479c-1.453-1.452-3.424-2.27-5.479-2.27
		c-2.053,0-4.025,0.817-5.478,2.27c-1.453,1.454-2.269,3.424-2.269,5.479c0,2.055,0.816,4.026,2.269,5.478
		C270.773,155.887,272.746,156.703,274.799,156.703z"/>
</g>
<g>
	<path fill="#ABD6B5" stroke="#1A5B29" stroke-miterlimit="10" d="M353.951,218.351c1.995,0,3.909-0.796,5.319-2.207
		c1.411-1.409,2.202-3.321,2.202-5.317s-0.791-3.908-2.202-5.319c-1.41-1.411-3.324-2.206-5.319-2.206s-3.91,0.795-5.32,2.206
		s-2.204,3.323-2.204,5.319s0.794,3.908,2.204,5.317C350.041,217.555,351.956,218.351,353.951,218.351z"/>
	<path fill="#ABD6B5" stroke="#1A5B29" stroke-miterlimit="10" d="M353.951,218.351c1.995,0,3.909-0.796,5.319-2.207
		c1.411-1.409,2.202-3.321,2.202-5.317s-0.791-3.908-2.202-5.319c-1.41-1.411-3.324-2.206-5.319-2.206s-3.91,0.795-5.32,2.206
		s-2.204,3.323-2.204,5.319s0.794,3.908,2.204,5.317C350.041,217.555,351.956,218.351,353.951,218.351z"/>
</g>
<g>
	<path fill="#ABD6B5" stroke="#1A5B29" stroke-miterlimit="10" d="M322.053,239.326c1.995,0,3.909-0.794,5.319-2.205
		c1.412-1.41,2.202-3.325,2.202-5.319c0-1.996-0.79-3.908-2.202-5.318c-1.41-1.412-3.324-2.204-5.319-2.204
		c-1.996,0-3.91,0.792-5.321,2.204c-1.411,1.41-2.202,3.322-2.202,5.318c0,1.994,0.791,3.909,2.202,5.319
		C318.143,238.532,320.057,239.326,322.053,239.326z"/>
	<path fill="#ABD6B5" stroke="#1A5B29" stroke-miterlimit="10" d="M322.053,239.326c1.995,0,3.909-0.794,5.319-2.205
		c1.412-1.41,2.202-3.325,2.202-5.319c0-1.996-0.79-3.908-2.202-5.318c-1.41-1.412-3.324-2.204-5.319-2.204
		c-1.996,0-3.91,0.792-5.321,2.204c-1.411,1.41-2.202,3.322-2.202,5.318c0,1.994,0.791,3.909,2.202,5.319
		C318.143,238.532,320.057,239.326,322.053,239.326z"/>
</g>
<g>
	<path fill="#ABD6B5" stroke="#1A5B29" stroke-miterlimit="10" d="M285.754,203.564c1.738,0,3.404-0.687,4.631-1.916
		c1.228-1.229,1.918-2.893,1.918-4.63c0-1.737-0.69-3.403-1.918-4.63c-1.227-1.228-2.893-1.918-4.631-1.918
		c-1.735,0-3.401,0.69-4.629,1.918c-1.229,1.227-1.919,2.893-1.919,4.63c0,1.737,0.69,3.401,1.919,4.63
		C282.353,202.877,284.019,203.564,285.754,203.564z"/>
	<path fill="#ABD6B5" stroke="#1A5B29" stroke-miterlimit="10" d="M285.754,203.564c1.738,0,3.404-0.687,4.631-1.916
		c1.228-1.229,1.918-2.893,1.918-4.63c0-1.737-0.69-3.403-1.918-4.63c-1.227-1.228-2.893-1.918-4.631-1.918
		c-1.735,0-3.401,0.69-4.629,1.918c-1.229,1.227-1.919,2.893-1.919,4.63c0,1.737,0.69,3.401,1.919,4.63
		C282.353,202.877,284.019,203.564,285.754,203.564z"/>
</g>
<g>
	<path fill="#ABD6B5" stroke="#1A5B29" stroke-miterlimit="10" d="M329.574,272.715c1.666,0,3.265-0.662,4.443-1.838
		c1.177-1.18,1.839-2.777,1.839-4.443s-0.662-3.265-1.839-4.441c-1.179-1.177-2.777-1.839-4.443-1.839
		c-1.665,0-3.262,0.662-4.44,1.839c-1.178,1.177-1.84,2.775-1.84,4.441s0.662,3.264,1.84,4.443
		C326.312,272.053,327.909,272.715,329.574,272.715z"/>
	<path fill="#ABD6B5" stroke="#1A5B29" stroke-miterlimit="10" d="M329.574,272.715c1.666,0,3.265-0.662,4.443-1.838
		c1.177-1.18,1.839-2.777,1.839-4.443s-0.662-3.265-1.839-4.441c-1.179-1.177-2.777-1.839-4.443-1.839
		c-1.665,0-3.262,0.662-4.44,1.839c-1.178,1.177-1.84,2.775-1.84,4.441s0.662,3.264,1.84,4.443
		C326.312,272.053,327.909,272.715,329.574,272.715z"/>
</g>
<g>
	<path fill="#ABD6B5" stroke="#1A5B29" stroke-miterlimit="10" d="M285.754,245.606c1.667,0,3.265-0.662,4.443-1.841
		c1.178-1.178,1.839-2.775,1.839-4.439c0-1.667-0.661-3.265-1.839-4.443c-1.178-1.176-2.776-1.84-4.443-1.84
		c-1.665,0-3.263,0.664-4.44,1.84c-1.178,1.179-1.84,2.776-1.84,4.443c0,1.664,0.662,3.262,1.84,4.439
		C282.491,244.944,284.089,245.606,285.754,245.606z"/>
	<path fill="#ABD6B5" stroke="#1A5B29" stroke-miterlimit="10" d="M285.754,245.606c1.667,0,3.265-0.662,4.443-1.841
		c1.178-1.178,1.839-2.775,1.839-4.439c0-1.667-0.661-3.265-1.839-4.443c-1.178-1.176-2.776-1.84-4.443-1.84
		c-1.665,0-3.263,0.664-4.44,1.84c-1.178,1.179-1.84,2.776-1.84,4.443c0,1.664,0.662,3.262,1.84,4.439
		C282.491,244.944,284.089,245.606,285.754,245.606z"/>
</g>
<g>
	<path fill="#ABD6B5" stroke="#1A5B29" stroke-miterlimit="10" d="M323.294,203.694c1.667,0,3.264-0.661,4.442-1.839
		c1.177-1.179,1.838-2.776,1.838-4.44c0-1.667-0.661-3.265-1.838-4.443c-1.179-1.176-2.775-1.839-4.442-1.839
		c-1.665,0-3.264,0.664-4.441,1.839c-1.178,1.178-1.84,2.776-1.84,4.443c0,1.665,0.662,3.262,1.84,4.44
		C320.03,203.033,321.629,203.694,323.294,203.694z"/>
	<path fill="#ABD6B5" stroke="#1A5B29" stroke-miterlimit="10" d="M323.294,203.694c1.667,0,3.264-0.661,4.442-1.839
		c1.177-1.179,1.838-2.776,1.838-4.44c0-1.667-0.661-3.265-1.838-4.443c-1.179-1.176-2.775-1.839-4.442-1.839
		c-1.665,0-3.264,0.664-4.441,1.839c-1.178,1.178-1.84,2.776-1.84,4.443c0,1.665,0.662,3.262,1.84,4.44
		C320.03,203.033,321.629,203.694,323.294,203.694z"/>
</g>
<g>
	<path fill="#ABD6B5" stroke="#1A5B29" stroke-miterlimit="10" d="M251.562,174.022c1.592,0,3.119-0.631,4.245-1.757
		c1.125-1.125,1.757-2.653,1.757-4.244c0-1.592-0.633-3.117-1.757-4.243c-1.125-1.125-2.652-1.758-4.245-1.758
		c-1.592,0-3.118,0.633-4.244,1.758c-1.125,1.126-1.757,2.651-1.757,4.243c0,1.591,0.632,3.119,1.757,4.244
		C248.444,173.392,249.971,174.022,251.562,174.022z"/>
	<path fill="#ABD6B5" stroke="#1A5B29" stroke-miterlimit="10" d="M251.562,174.022c1.592,0,3.119-0.631,4.245-1.757
		c1.125-1.125,1.757-2.653,1.757-4.244c0-1.592-0.633-3.117-1.757-4.243c-1.125-1.125-2.652-1.758-4.245-1.758
		c-1.592,0-3.118,0.633-4.244,1.758c-1.125,1.126-1.757,2.651-1.757,4.243c0,1.591,0.632,3.119,1.757,4.244
		C248.444,173.392,249.971,174.022,251.562,174.022z"/>
</g>
<g>
	<path fill="#ABD6B5" stroke="#1A5B29" stroke-miterlimit="10" d="M285.754,266.434c1.592,0,3.119-0.631,4.244-1.757
		c1.125-1.125,1.758-2.651,1.758-4.244c0-1.59-0.632-3.117-1.758-4.243c-1.125-1.124-2.652-1.756-4.244-1.756
		c-1.591,0-3.117,0.632-4.242,1.756c-1.126,1.126-1.758,2.653-1.758,4.243c0,1.593,0.632,3.119,1.758,4.244
		C282.637,265.803,284.163,266.434,285.754,266.434z"/>
	<path fill="#ABD6B5" stroke="#1A5B29" stroke-miterlimit="10" d="M285.754,266.434c1.592,0,3.119-0.631,4.244-1.757
		c1.125-1.125,1.758-2.651,1.758-4.244c0-1.59-0.632-3.117-1.758-4.243c-1.125-1.124-2.652-1.756-4.244-1.756
		c-1.591,0-3.117,0.632-4.242,1.756c-1.126,1.126-1.758,2.653-1.758,4.243c0,1.593,0.632,3.119,1.758,4.244
		C282.637,265.803,284.163,266.434,285.754,266.434z"/>
</g>
<g>
	<path fill="#ABD6B5" stroke="#1A5B29" stroke-miterlimit="10" d="M245.626,203.351c1.574,0,3.085-0.626,4.198-1.738
		c1.114-1.113,1.738-2.624,1.738-4.198s-0.624-3.084-1.738-4.197c-1.113-1.112-2.624-1.739-4.198-1.739s-3.083,0.626-4.197,1.739
		c-1.113,1.113-1.738,2.623-1.738,4.197s0.625,3.085,1.738,4.198C242.543,202.724,244.053,203.351,245.626,203.351z"/>
	<path fill="#ABD6B5" stroke="#1A5B29" stroke-miterlimit="10" d="M245.626,203.351c1.574,0,3.085-0.626,4.198-1.738
		c1.114-1.113,1.738-2.624,1.738-4.198s-0.624-3.084-1.738-4.197c-1.113-1.112-2.624-1.739-4.198-1.739s-3.083,0.626-4.197,1.739
		c-1.113,1.113-1.738,2.623-1.738,4.197s0.625,3.085,1.738,4.198C242.543,202.724,244.053,203.351,245.626,203.351z"/>
</g>
<g>
	<path fill="#ABD6B5" stroke="#1A5B29" stroke-miterlimit="10" d="M251.562,260.289c1.554,0,3.044-0.615,4.143-1.715
		c1.099-1.098,1.715-2.587,1.715-4.141s-0.617-3.044-1.715-4.143c-1.099-1.096-2.588-1.716-4.143-1.716
		c-1.552,0-3.042,0.62-4.141,1.716c-1.098,1.099-1.715,2.589-1.715,4.143s0.617,3.043,1.715,4.141
		C248.521,259.674,250.01,260.289,251.562,260.289z"/>
	<path fill="#ABD6B5" stroke="#1A5B29" stroke-miterlimit="10" d="M251.562,260.289c1.554,0,3.044-0.615,4.143-1.715
		c1.099-1.098,1.715-2.587,1.715-4.141s-0.617-3.044-1.715-4.143c-1.099-1.096-2.588-1.716-4.143-1.716
		c-1.552,0-3.042,0.62-4.141,1.716c-1.098,1.099-1.715,2.589-1.715,4.143s0.617,3.043,1.715,4.141
		C248.521,259.674,250.01,260.289,251.562,260.289z"/>
</g>
<g>
	<path fill="#ABD6B5" stroke="#1A5B29" stroke-miterlimit="10" d="M361.473,189.227c1.515,0,2.968-0.602,4.038-1.672
		c1.07-1.071,1.672-2.522,1.672-4.037c0-1.514-0.602-2.966-1.672-4.037c-1.07-1.071-2.523-1.672-4.038-1.672
		c-1.513,0-2.965,0.601-4.036,1.672c-1.07,1.07-1.672,2.522-1.672,4.037c0,1.515,0.602,2.966,1.672,4.037
		C358.508,188.625,359.96,189.227,361.473,189.227z"/>
	<path fill="#ABD6B5" stroke="#1A5B29" stroke-miterlimit="10" d="M361.473,189.227c1.515,0,2.968-0.602,4.038-1.672
		c1.07-1.071,1.672-2.522,1.672-4.037c0-1.514-0.602-2.966-1.672-4.037c-1.07-1.071-2.523-1.672-4.038-1.672
		c-1.513,0-2.965,0.601-4.036,1.672c-1.07,1.07-1.672,2.522-1.672,4.037c0,1.515,0.602,2.966,1.672,4.037
		C358.508,188.625,359.96,189.227,361.473,189.227z"/>
</g>
<g>
	<path fill="#A9BED1" stroke="#5D6A70" stroke-miterlimit="10" d="M509.808,39.318c2.279,0,4.462-0.905,6.072-2.515
		c1.612-1.611,2.517-3.795,2.517-6.072c0-2.279-0.904-4.463-2.517-6.073c-1.61-1.611-3.793-2.516-6.072-2.516
		c-2.277,0-4.461,0.905-6.072,2.516c-1.61,1.61-2.515,3.794-2.515,6.073c0,2.277,0.904,4.461,2.515,6.072
		C505.347,38.414,507.53,39.318,509.808,39.318z"/>
	<path fill="#A9BED1" stroke="#5D6A70" stroke-miterlimit="10" d="M509.808,39.318c2.279,0,4.462-0.905,6.072-2.515
		c1.612-1.611,2.517-3.795,2.517-6.072c0-2.279-0.904-4.463-2.517-6.073c-1.61-1.611-3.793-2.516-6.072-2.516
		c-2.277,0-4.461,0.905-6.072,2.516c-1.61,1.61-2.515,3.794-2.515,6.073c0,2.277,0.904,4.461,2.515,6.072
		C505.347,38.414,507.53,39.318,509.808,39.318z"/>
</g>
<g>
	<path fill="#A9BED1" stroke="#5D6A70" stroke-miterlimit="10" d="M509.81,75.663c2.113,0,4.139-0.839,5.631-2.334
		c1.495-1.494,2.335-3.521,2.335-5.632c0-2.113-0.84-4.139-2.335-5.632c-1.492-1.494-3.518-2.334-5.631-2.334
		c-2.112,0-4.14,0.84-5.633,2.334c-1.494,1.493-2.335,3.52-2.335,5.632c0,2.112,0.841,4.139,2.335,5.632
		C505.67,74.824,507.697,75.663,509.81,75.663z"/>
	<path fill="#A9BED1" stroke="#5D6A70" stroke-miterlimit="10" d="M509.81,75.663c2.113,0,4.139-0.839,5.631-2.334
		c1.495-1.494,2.335-3.521,2.335-5.632c0-2.113-0.84-4.139-2.335-5.632c-1.492-1.494-3.518-2.334-5.631-2.334
		c-2.112,0-4.14,0.84-5.633,2.334c-1.494,1.493-2.335,3.52-2.335,5.632c0,2.112,0.841,4.139,2.335,5.632
		C505.67,74.824,507.697,75.663,509.81,75.663z"/>
</g>
<g>
	<path fill="#A9BED1" stroke="#5D6A70" stroke-miterlimit="10" d="M478.189,53.236c2.112,0,4.14-0.839,5.633-2.333
		c1.491-1.494,2.333-3.52,2.333-5.632s-0.842-4.139-2.333-5.634c-1.493-1.493-3.521-2.333-5.633-2.333
		c-2.111,0-4.14,0.839-5.635,2.333c-1.492,1.495-2.333,3.521-2.333,5.634s0.841,4.138,2.333,5.632
		C474.05,52.396,476.078,53.236,478.189,53.236z"/>
	<path fill="#A9BED1" stroke="#5D6A70" stroke-miterlimit="10" d="M478.189,53.236c2.112,0,4.14-0.839,5.633-2.333
		c1.491-1.494,2.333-3.52,2.333-5.632s-0.842-4.139-2.333-5.634c-1.493-1.493-3.521-2.333-5.633-2.333
		c-2.111,0-4.14,0.839-5.635,2.333c-1.492,1.495-2.333,3.521-2.333,5.634s0.841,4.138,2.333,5.632
		C474.05,52.396,476.078,53.236,478.189,53.236z"/>
</g>
<g>
	<path fill="#ABD6B5" stroke="#1A5B29" stroke-miterlimit="10" d="M239.691,226.882c1.934,0,3.789-0.771,5.157-2.137
		c1.366-1.368,2.134-3.221,2.134-5.156c0-1.934-0.768-3.789-2.134-5.157c-1.369-1.368-3.224-2.134-5.157-2.134
		c-1.935,0-3.789,0.766-5.156,2.134c-1.367,1.368-2.136,3.224-2.136,5.157c0,1.936,0.77,3.788,2.136,5.156
		C235.902,226.111,237.756,226.882,239.691,226.882z"/>
	<path fill="#ABD6B5" stroke="#1A5B29" stroke-miterlimit="10" d="M239.691,226.882c1.934,0,3.789-0.771,5.157-2.137
		c1.366-1.368,2.134-3.221,2.134-5.156c0-1.934-0.768-3.789-2.134-5.157c-1.369-1.368-3.224-2.134-5.157-2.134
		c-1.935,0-3.789,0.766-5.156,2.134c-1.367,1.368-2.136,3.224-2.136,5.157c0,1.936,0.77,3.788,2.136,5.156
		C235.902,226.111,237.756,226.882,239.691,226.882z"/>
</g>
<g>
	<path fill="#A9BED1" stroke="#5D6A70" stroke-miterlimit="10" d="M503.151,142.699c1.785,0,3.495-0.709,4.759-1.972
		c1.262-1.261,1.97-2.973,1.97-4.758c0-1.784-0.708-3.496-1.97-4.758c-1.264-1.261-2.974-1.971-4.759-1.971s-3.497,0.71-4.759,1.971
		c-1.261,1.262-1.97,2.974-1.97,4.758c0,1.785,0.709,3.497,1.97,4.758C499.654,141.99,501.366,142.699,503.151,142.699z"/>
	<path fill="#A9BED1" stroke="#5D6A70" stroke-miterlimit="10" d="M503.151,142.699c1.785,0,3.495-0.709,4.759-1.972
		c1.262-1.261,1.97-2.973,1.97-4.758c0-1.784-0.708-3.496-1.97-4.758c-1.264-1.261-2.974-1.971-4.759-1.971s-3.497,0.71-4.759,1.971
		c-1.261,1.262-1.97,2.974-1.97,4.758c0,1.785,0.709,3.497,1.97,4.758C499.654,141.99,501.366,142.699,503.151,142.699z"/>
</g>
<g>
	<path fill="#A9BED1" stroke="#5D6A70" stroke-miterlimit="10" d="M470.222,74.244c1.738,0,3.405-0.69,4.633-1.919
		c1.228-1.226,1.919-2.893,1.919-4.631c0-1.734-0.691-3.401-1.919-4.63s-2.895-1.917-4.633-1.917c-1.735,0-3.399,0.688-4.628,1.917
		c-1.228,1.229-1.919,2.896-1.919,4.63c0,1.738,0.691,3.405,1.919,4.631C466.822,73.554,468.486,74.244,470.222,74.244z"/>
	<path fill="#A9BED1" stroke="#5D6A70" stroke-miterlimit="10" d="M470.222,74.244c1.738,0,3.405-0.69,4.633-1.919
		c1.228-1.226,1.919-2.893,1.919-4.631c0-1.734-0.691-3.401-1.919-4.63s-2.895-1.917-4.633-1.917c-1.735,0-3.399,0.688-4.628,1.917
		c-1.228,1.229-1.919,2.896-1.919,4.63c0,1.738,0.691,3.405,1.919,4.631C466.822,73.554,468.486,74.244,470.222,74.244z"/>
</g>
<g>
	<path fill="#A9BED1" stroke="#5D6A70" stroke-miterlimit="10" d="M464.824,113.369c1.737,0,3.404-0.69,4.632-1.918
		c1.227-1.226,1.918-2.894,1.918-4.63c0-1.736-0.691-3.403-1.918-4.63c-1.228-1.228-2.895-1.917-4.632-1.917
		c-1.734,0-3.399,0.689-4.628,1.917c-1.229,1.227-1.917,2.894-1.917,4.63c0,1.737,0.688,3.405,1.917,4.63
		C461.425,112.679,463.09,113.369,464.824,113.369z"/>
	<path fill="#A9BED1" stroke="#5D6A70" stroke-miterlimit="10" d="M464.824,113.369c1.737,0,3.404-0.69,4.632-1.918
		c1.227-1.226,1.918-2.894,1.918-4.63c0-1.736-0.691-3.403-1.918-4.63c-1.228-1.228-2.895-1.917-4.632-1.917
		c-1.734,0-3.399,0.689-4.628,1.917c-1.229,1.227-1.917,2.894-1.917,4.63c0,1.737,0.688,3.405,1.917,4.63
		C461.425,112.679,463.09,113.369,464.824,113.369z"/>
</g>
<g>
	<path fill="#A9BED1" stroke="#5D6A70" stroke-miterlimit="10" d="M509.81,106.821c1.765,0,3.459-0.702,4.708-1.95
		c1.249-1.25,1.95-2.943,1.95-4.708s-0.701-3.46-1.95-4.708c-1.249-1.247-2.943-1.949-4.708-1.949c-1.766,0-3.459,0.702-4.709,1.949
		c-1.247,1.249-1.949,2.943-1.949,4.708s0.702,3.458,1.949,4.708C506.351,106.119,508.044,106.821,509.81,106.821z"/>
	<path fill="#A9BED1" stroke="#5D6A70" stroke-miterlimit="10" d="M509.81,106.821c1.765,0,3.459-0.702,4.708-1.95
		c1.249-1.25,1.95-2.943,1.95-4.708s-0.701-3.46-1.95-4.708c-1.249-1.247-2.943-1.949-4.708-1.949c-1.766,0-3.459,0.702-4.709,1.949
		c-1.247,1.249-1.949,2.943-1.949,4.708s0.702,3.458,1.949,4.708C506.351,106.119,508.044,106.821,509.81,106.821z"/>
</g>
<g>
	<path fill="#A9BED1" stroke="#5D6A70" stroke-miterlimit="10" d="M529.892,114.253c1.668,0,3.264-0.662,4.441-1.839
		c1.179-1.178,1.84-2.777,1.84-4.443c0-1.665-0.661-3.263-1.84-4.441c-1.178-1.178-2.773-1.839-4.441-1.839
		c-1.665,0-3.263,0.661-4.44,1.839c-1.178,1.178-1.84,2.776-1.84,4.441c0,1.667,0.662,3.265,1.84,4.443
		C526.629,113.591,528.227,114.253,529.892,114.253z"/>
	<path fill="#A9BED1" stroke="#5D6A70" stroke-miterlimit="10" d="M529.892,114.253c1.668,0,3.264-0.662,4.441-1.839
		c1.179-1.178,1.84-2.777,1.84-4.443c0-1.665-0.661-3.263-1.84-4.441c-1.178-1.178-2.773-1.839-4.441-1.839
		c-1.665,0-3.263,0.661-4.44,1.839c-1.178,1.178-1.84,2.776-1.84,4.441c0,1.667,0.662,3.265,1.84,4.443
		C526.629,113.591,528.227,114.253,529.892,114.253z"/>
</g>
<g>
	<path fill="#A9BED1" stroke="#5D6A70" stroke-miterlimit="10" d="M523.611,59.518c1.666,0,3.263-0.663,4.441-1.84
		c1.178-1.179,1.839-2.776,1.839-4.443c0-1.665-0.661-3.263-1.839-4.442c-1.179-1.176-2.775-1.839-4.441-1.839
		s-3.264,0.663-4.441,1.839c-1.177,1.179-1.839,2.777-1.839,4.442c0,1.667,0.662,3.264,1.839,4.443
		C520.348,58.854,521.945,59.518,523.611,59.518z"/>
	<path fill="#A9BED1" stroke="#5D6A70" stroke-miterlimit="10" d="M523.611,59.518c1.666,0,3.263-0.663,4.441-1.84
		c1.178-1.179,1.839-2.776,1.839-4.443c0-1.665-0.661-3.263-1.839-4.442c-1.179-1.176-2.775-1.839-4.441-1.839
		s-3.264,0.663-4.441,1.839c-1.177,1.179-1.839,2.777-1.839,4.442c0,1.667,0.662,3.264,1.839,4.443
		C520.348,58.854,521.945,59.518,523.611,59.518z"/>
</g>
<g>
	<path fill="#A9BED1" stroke="#5D6A70" stroke-miterlimit="10" d="M541.8,99.703c1.644,0,3.22-0.651,4.382-1.815
		c1.164-1.161,1.817-2.738,1.817-4.382c0-1.644-0.653-3.221-1.817-4.383c-1.162-1.163-2.738-1.817-4.382-1.817
		c-1.645,0-3.221,0.654-4.385,1.817c-1.16,1.162-1.814,2.739-1.814,4.383c0,1.644,0.654,3.221,1.814,4.382
		C538.579,99.051,540.155,99.703,541.8,99.703z"/>
	<path fill="#A9BED1" stroke="#5D6A70" stroke-miterlimit="10" d="M541.8,99.703c1.644,0,3.22-0.651,4.382-1.815
		c1.164-1.161,1.817-2.738,1.817-4.382c0-1.644-0.653-3.221-1.817-4.383c-1.162-1.163-2.738-1.817-4.382-1.817
		c-1.645,0-3.221,0.654-4.385,1.817c-1.16,1.162-1.814,2.739-1.814,4.383c0,1.644,0.654,3.221,1.814,4.382
		C538.579,99.051,540.155,99.703,541.8,99.703z"/>
</g>
<g>
	<path fill="#A9BED1" stroke="#5D6A70" stroke-miterlimit="10" d="M536.175,73.832c1.627,0,3.188-0.646,4.337-1.796
		c1.151-1.151,1.798-2.712,1.798-4.34c0-1.626-0.646-3.188-1.798-4.338c-1.149-1.15-2.71-1.796-4.337-1.796
		c-1.629,0-3.188,0.646-4.339,1.796c-1.152,1.151-1.8,2.712-1.8,4.338c0,1.627,0.647,3.189,1.8,4.34
		C532.987,73.186,534.546,73.832,536.175,73.832z"/>
	<path fill="#A9BED1" stroke="#5D6A70" stroke-miterlimit="10" d="M536.175,73.832c1.627,0,3.188-0.646,4.337-1.796
		c1.151-1.151,1.798-2.712,1.798-4.34c0-1.626-0.646-3.188-1.798-4.338c-1.149-1.15-2.71-1.796-4.337-1.796
		c-1.629,0-3.188,0.646-4.339,1.796c-1.152,1.151-1.8,2.712-1.8,4.338c0,1.627,0.647,3.189,1.8,4.34
		C532.987,73.186,534.546,73.832,536.175,73.832z"/>
</g>
<g>
	<path fill="#A9BED1" stroke="#5D6A70" stroke-miterlimit="10" d="M458.279,91.368c1.603,0,3.14-0.636,4.271-1.769
		c1.133-1.133,1.771-2.669,1.771-4.271c0-1.601-0.638-3.139-1.771-4.273c-1.132-1.132-2.669-1.769-4.271-1.769
		c-1.604,0-3.139,0.637-4.271,1.769c-1.133,1.134-1.771,2.672-1.771,4.273c0,1.603,0.638,3.138,1.771,4.271
		C455.141,90.732,456.676,91.368,458.279,91.368z"/>
	<path fill="#A9BED1" stroke="#5D6A70" stroke-miterlimit="10" d="M458.279,91.368c1.603,0,3.14-0.636,4.271-1.769
		c1.133-1.133,1.771-2.669,1.771-4.271c0-1.601-0.638-3.139-1.771-4.273c-1.132-1.132-2.669-1.769-4.271-1.769
		c-1.604,0-3.139,0.637-4.271,1.769c-1.133,1.134-1.771,2.672-1.771,4.273c0,1.603,0.638,3.138,1.771,4.271
		C455.141,90.732,456.676,91.368,458.279,91.368z"/>
</g>
<g>
	<path fill="#A9BED1" stroke="#5D6A70" stroke-miterlimit="10" d="M500.805,119.962c1.515,0,2.966-0.602,4.037-1.672
		c1.073-1.072,1.673-2.522,1.673-4.038c0-1.514-0.6-2.966-1.673-4.036c-1.071-1.07-2.522-1.672-4.037-1.672
		c-1.513,0-2.967,0.602-4.036,1.672c-1.07,1.07-1.673,2.522-1.673,4.036c0,1.516,0.603,2.965,1.673,4.038
		C497.838,119.36,499.292,119.962,500.805,119.962z"/>
	<path fill="#A9BED1" stroke="#5D6A70" stroke-miterlimit="10" d="M500.805,119.962c1.515,0,2.966-0.602,4.037-1.672
		c1.073-1.072,1.673-2.522,1.673-4.038c0-1.514-0.6-2.966-1.673-4.036c-1.071-1.07-2.522-1.672-4.037-1.672
		c-1.513,0-2.967,0.602-4.036,1.672c-1.07,1.07-1.673,2.522-1.673,4.036c0,1.516,0.603,2.965,1.673,4.038
		C497.838,119.36,499.292,119.962,500.805,119.962z"/>
</g>
<g>
	<path opacity="0.5" fill="#B5A5DC" stroke="#362F48" stroke-miterlimit="10" d="M87.355,103.217c2.575,0,5.045-1.022,6.868-2.844
		c1.82-1.822,2.844-4.292,2.844-6.868s-1.023-5.047-2.844-6.868c-1.823-1.822-4.293-2.846-6.868-2.846
		c-2.576,0-5.047,1.024-6.869,2.846c-1.821,1.821-2.845,4.292-2.845,6.868s1.024,5.046,2.845,6.868
		C82.309,102.194,84.779,103.217,87.355,103.217z"/>
	<path opacity="0.5" fill="#B5A5DC" stroke="#362F48" stroke-width="1.2832" stroke-linejoin="round" stroke-miterlimit="10" d="
		M87.355,103.217c2.575,0,5.045-1.022,6.868-2.844c1.82-1.822,2.844-4.292,2.844-6.868s-1.023-5.047-2.844-6.868
		c-1.823-1.822-4.293-2.846-6.868-2.846c-2.576,0-5.047,1.024-6.869,2.846c-1.821,1.821-2.845,4.292-2.845,6.868
		s1.024,5.046,2.845,6.868C82.309,102.194,84.779,103.217,87.355,103.217z"/>
</g>
<g>
	<path opacity="0.5" fill="#B5A5DC" stroke="#362F48" stroke-miterlimit="10" d="M83.643,156.865c2.576,0,5.046-1.023,6.868-2.845
		c1.822-1.821,2.845-4.293,2.845-6.869c0-2.575-1.023-5.046-2.845-6.867s-4.292-2.844-6.868-2.844s-5.046,1.023-6.868,2.844
		c-1.821,1.821-2.845,4.292-2.845,6.867c0,2.576,1.024,5.048,2.845,6.869C78.596,155.842,81.066,156.865,83.643,156.865z"/>
	<path opacity="0.5" fill="#B5A5DC" stroke="#362F48" stroke-width="1.2832" stroke-linejoin="round" stroke-miterlimit="10" d="
		M83.643,156.865c2.576,0,5.046-1.023,6.868-2.845c1.822-1.821,2.845-4.293,2.845-6.869c0-2.575-1.023-5.046-2.845-6.867
		s-4.292-2.844-6.868-2.844s-5.046,1.023-6.868,2.844c-1.821,1.821-2.845,4.292-2.845,6.867c0,2.576,1.024,5.048,2.845,6.869
		C78.596,155.842,81.066,156.865,83.643,156.865z"/>
</g>
<g>
	<path opacity="0.5" fill="#B5A5DC" stroke="#362F48" stroke-miterlimit="10" d="M142.802,142.341c2.481,0,4.86-0.986,6.615-2.739
		c1.753-1.754,2.739-4.133,2.739-6.613c0-2.481-0.986-4.86-2.739-6.614c-1.754-1.754-4.133-2.739-6.615-2.739
		c-2.479,0-4.859,0.985-6.612,2.739c-1.755,1.754-2.74,4.133-2.74,6.614c0,2.48,0.985,4.859,2.74,6.613
		C137.943,141.355,140.322,142.341,142.802,142.341z"/>
	<path opacity="0.5" fill="#B5A5DC" stroke="#362F48" stroke-width="1.2832" stroke-linejoin="round" stroke-miterlimit="10" d="
		M142.802,142.341c2.481,0,4.86-0.986,6.615-2.739c1.753-1.754,2.739-4.133,2.739-6.613c0-2.481-0.986-4.86-2.739-6.614
		c-1.754-1.754-4.133-2.739-6.615-2.739c-2.479,0-4.859,0.985-6.612,2.739c-1.755,1.754-2.74,4.133-2.74,6.614
		c0,2.48,0.985,4.859,2.74,6.613C137.943,141.355,140.322,142.341,142.802,142.341z"/>
</g>
<g>
	<path opacity="0.5" fill="#B5A5DC" stroke="#362F48" stroke-miterlimit="10" d="M112.343,101.685c2.168,0,4.249-0.862,5.784-2.396
		c1.533-1.535,2.396-3.615,2.396-5.784c0-2.17-0.863-4.25-2.396-5.783c-1.535-1.534-3.615-2.396-5.784-2.396
		c-2.169,0-4.25,0.861-5.784,2.396c-1.533,1.533-2.394,3.613-2.394,5.783c0,2.169,0.861,4.249,2.394,5.784
		C108.093,100.823,110.173,101.685,112.343,101.685z"/>
	<path opacity="0.5" fill="#B5A5DC" stroke="#362F48" stroke-width="1.2832" stroke-linejoin="round" stroke-miterlimit="10" d="
		M112.343,101.685c2.168,0,4.249-0.862,5.784-2.396c1.533-1.535,2.396-3.615,2.396-5.784c0-2.17-0.863-4.25-2.396-5.783
		c-1.535-1.534-3.615-2.396-5.784-2.396c-2.169,0-4.25,0.861-5.784,2.396c-1.533,1.533-2.394,3.613-2.394,5.783
		c0,2.169,0.861,4.249,2.394,5.784C108.093,100.823,110.173,101.685,112.343,101.685z"/>
</g>
<g>
	<path opacity="0.5" fill="#B5A5DC" stroke="#362F48" stroke-miterlimit="10" d="M77.642,185.558c2.056,0,4.026-0.816,5.479-2.269
		c1.454-1.453,2.269-3.424,2.269-5.479c0-2.054-0.815-4.025-2.269-5.479c-1.453-1.452-3.423-2.27-5.479-2.27
		c-2.055,0-4.026,0.817-5.479,2.27c-1.452,1.454-2.269,3.425-2.269,5.479c0,2.055,0.817,4.026,2.269,5.479
		C73.616,184.742,75.587,185.558,77.642,185.558z"/>
	<path opacity="0.5" fill="#B5A5DC" stroke="#362F48" stroke-width="1.2832" stroke-linejoin="round" stroke-miterlimit="10" d="
		M77.642,185.558c2.056,0,4.026-0.816,5.479-2.269c1.454-1.453,2.269-3.424,2.269-5.479c0-2.054-0.815-4.025-2.269-5.479
		c-1.453-1.452-3.423-2.27-5.479-2.27c-2.055,0-4.026,0.817-5.479,2.27c-1.452,1.454-2.269,3.425-2.269,5.479
		c0,2.055,0.817,4.026,2.269,5.479C73.616,184.742,75.587,185.558,77.642,185.558z"/>
</g>
<g>
	<path opacity="0.5" fill="#B5A5DC" stroke="#362F48" stroke-miterlimit="10" d="M104.164,144.491c1.87,0,3.663-0.743,4.985-2.066
		c1.323-1.322,2.067-3.117,2.067-4.986c0-1.871-0.744-3.665-2.067-4.987c-1.322-1.323-3.116-2.065-4.985-2.065
		c-1.871,0-3.665,0.743-4.988,2.065c-1.322,1.323-2.066,3.116-2.066,4.987c0,1.869,0.744,3.664,2.066,4.986
		C100.499,143.749,102.293,144.491,104.164,144.491z"/>
	<path opacity="0.5" fill="#B5A5DC" stroke="#362F48" stroke-width="1.2832" stroke-linejoin="round" stroke-miterlimit="10" d="
		M104.164,144.491c1.87,0,3.663-0.743,4.985-2.066c1.323-1.322,2.067-3.117,2.067-4.986c0-1.871-0.744-3.665-2.067-4.987
		c-1.322-1.323-3.116-2.065-4.985-2.065c-1.871,0-3.665,0.743-4.988,2.065c-1.322,1.323-2.066,3.116-2.066,4.987
		c0,1.869,0.744,3.664,2.066,4.986C100.499,143.749,102.293,144.491,104.164,144.491z"/>
</g>
<g>
	<path opacity="0.5" fill="#B5A5DC" stroke="#362F48" stroke-miterlimit="10" d="M93.355,206.736c1.592,0,3.118-0.631,4.244-1.758
		c1.125-1.124,1.757-2.65,1.757-4.243c0-1.59-0.632-3.118-1.757-4.244c-1.126-1.125-2.652-1.756-4.244-1.756
		c-1.59,0-3.117,0.631-4.242,1.756c-1.125,1.125-1.758,2.653-1.758,4.244c0,1.593,0.632,3.119,1.758,4.243
		C90.239,206.105,91.765,206.736,93.355,206.736z"/>
	<path opacity="0.5" fill="#B5A5DC" stroke="#362F48" stroke-width="1.2832" stroke-linejoin="round" stroke-miterlimit="10" d="
		M93.355,206.736c1.592,0,3.118-0.631,4.244-1.758c1.125-1.124,1.757-2.65,1.757-4.243c0-1.59-0.632-3.118-1.757-4.244
		c-1.126-1.125-2.652-1.756-4.244-1.756c-1.59,0-3.117,0.631-4.242,1.756c-1.125,1.125-1.758,2.653-1.758,4.244
		c0,1.593,0.632,3.119,1.758,4.243C90.239,206.105,91.765,206.736,93.355,206.736z"/>
</g>
<g>
	<path opacity="0.5" fill="#B5A5DC" stroke="#362F48" stroke-miterlimit="10" d="M49.104,148.37c1.592,0,3.118-0.632,4.244-1.758
		c1.125-1.125,1.757-2.651,1.757-4.243c0-1.591-0.632-3.119-1.757-4.244c-1.126-1.126-2.652-1.757-4.244-1.757
		c-1.591,0-3.118,0.631-4.244,1.757c-1.125,1.125-1.756,2.653-1.756,4.244c0,1.592,0.632,3.118,1.756,4.243
		C45.986,147.738,47.512,148.37,49.104,148.37z"/>
	<path opacity="0.5" fill="#B5A5DC" stroke="#362F48" stroke-width="1.2832" stroke-linejoin="round" stroke-miterlimit="10" d="
		M49.104,148.37c1.592,0,3.118-0.632,4.244-1.758c1.125-1.125,1.757-2.651,1.757-4.243c0-1.591-0.632-3.119-1.757-4.244
		c-1.126-1.126-2.652-1.757-4.244-1.757c-1.591,0-3.118,0.631-4.244,1.757c-1.125,1.125-1.756,2.653-1.756,4.244
		c0,1.592,0.632,3.118,1.756,4.243C45.986,147.738,47.512,148.37,49.104,148.37z"/>
</g>
<g>
	<path opacity="0.5" fill="#B5A5DC" stroke="#362F48" stroke-miterlimit="10" d="M66.795,119.37c1.592,0,3.119-0.632,4.244-1.758
		c1.125-1.125,1.758-2.651,1.758-4.243c0-1.591-0.633-3.119-1.758-4.244c-1.125-1.126-2.651-1.757-4.244-1.757
		c-1.591,0-3.117,0.631-4.242,1.757c-1.126,1.125-1.759,2.653-1.759,4.244c0,1.592,0.633,3.118,1.759,4.243
		C63.678,118.738,65.204,119.37,66.795,119.37z"/>
	<path opacity="0.5" fill="#B5A5DC" stroke="#362F48" stroke-width="1.2832" stroke-linejoin="round" stroke-miterlimit="10" d="
		M66.795,119.37c1.592,0,3.119-0.632,4.244-1.758c1.125-1.125,1.758-2.651,1.758-4.243c0-1.591-0.633-3.119-1.758-4.244
		c-1.125-1.126-2.651-1.757-4.244-1.757c-1.591,0-3.117,0.631-4.242,1.757c-1.126,1.125-1.759,2.653-1.759,4.244
		c0,1.592,0.633,3.118,1.759,4.243C63.678,118.738,65.204,119.37,66.795,119.37z"/>
</g>
<g>
	<path opacity="0.5" fill="#B5A5DC" stroke="#362F48" stroke-miterlimit="10" d="M51.104,170.82c1.592,0,3.118-0.633,4.244-1.759
		c1.125-1.126,1.758-2.652,1.758-4.244c0-1.591-0.633-3.118-1.758-4.244c-1.125-1.125-2.651-1.757-4.244-1.757
		c-1.591,0-3.119,0.632-4.243,1.757c-1.127,1.126-1.758,2.653-1.758,4.244c0,1.592,0.631,3.118,1.758,4.244
		C47.986,170.187,49.514,170.82,51.104,170.82z"/>
	<path opacity="0.5" fill="#B5A5DC" stroke="#362F48" stroke-width="1.2832" stroke-linejoin="round" stroke-miterlimit="10" d="
		M51.104,170.82c1.592,0,3.118-0.633,4.244-1.759c1.125-1.126,1.758-2.652,1.758-4.244c0-1.591-0.633-3.118-1.758-4.244
		c-1.125-1.125-2.651-1.757-4.244-1.757c-1.591,0-3.119,0.632-4.243,1.757c-1.127,1.126-1.758,2.653-1.758,4.244
		c0,1.592,0.631,3.118,1.758,4.244C47.986,170.187,49.514,170.82,51.104,170.82z"/>
</g>
<g>
	<path opacity="0.5" fill="#B5A5DC" stroke="#362F48" stroke-miterlimit="10" d="M142.803,168.217c1.514,0,2.966-0.602,4.037-1.672
		c1.071-1.071,1.672-2.521,1.672-4.037c0-1.514-0.601-2.967-1.672-4.036c-1.071-1.071-2.523-1.673-4.037-1.673
		s-2.966,0.603-4.037,1.673c-1.07,1.068-1.672,2.521-1.672,4.036c0,1.516,0.602,2.966,1.672,4.037
		C139.836,167.616,141.289,168.217,142.803,168.217z"/>
	<path opacity="0.5" fill="#B5A5DC" stroke="#362F48" stroke-width="1.2832" stroke-linejoin="round" stroke-miterlimit="10" d="
		M142.803,168.217c1.514,0,2.966-0.602,4.037-1.672c1.071-1.071,1.672-2.521,1.672-4.037c0-1.514-0.601-2.967-1.672-4.036
		c-1.071-1.071-2.523-1.673-4.037-1.673s-2.966,0.603-4.037,1.673c-1.07,1.068-1.672,2.521-1.672,4.036
		c0,1.516,0.602,2.966,1.672,4.037C139.836,167.616,141.289,168.217,142.803,168.217z"/>
</g>
<g>
	<path opacity="0.5" fill="#9F9F87" stroke="#24251B" stroke-miterlimit="10" d="M492.531,335.448c2.482,0,4.859-0.985,6.613-2.738
		c1.754-1.755,2.739-4.134,2.739-6.614s-0.985-4.86-2.739-6.614c-1.754-1.755-4.131-2.739-6.613-2.739
		c-2.479,0-4.861,0.984-6.614,2.739c-1.753,1.754-2.738,4.134-2.738,6.614s0.985,4.859,2.738,6.614
		C487.67,334.463,490.052,335.448,492.531,335.448z"/>
	<path opacity="0.5" fill="#9F9F87" stroke="#24251B" stroke-width="1.2832" stroke-linejoin="round" stroke-miterlimit="10" d="
		M492.531,335.448c2.482,0,4.859-0.985,6.613-2.738c1.754-1.755,2.739-4.134,2.739-6.614s-0.985-4.86-2.739-6.614
		c-1.754-1.755-4.131-2.739-6.613-2.739c-2.479,0-4.861,0.984-6.614,2.739c-1.753,1.754-2.738,4.134-2.738,6.614
		s0.985,4.859,2.738,6.614C487.67,334.463,490.052,335.448,492.531,335.448z"/>
</g>
<g>
	<path opacity="0.5" fill="#9F9F87" stroke="#24251B" stroke-miterlimit="10" d="M503.15,357.284c1.872,0,3.665-0.742,4.987-2.064
		c1.323-1.321,2.066-3.116,2.066-4.987c0-1.868-0.743-3.664-2.066-4.986c-1.322-1.321-3.115-2.064-4.987-2.064
		c-1.87,0-3.664,0.743-4.984,2.064c-1.323,1.322-2.067,3.118-2.067,4.986c0,1.871,0.744,3.666,2.067,4.987
		C499.486,356.542,501.28,357.284,503.15,357.284z"/>
	<path opacity="0.5" fill="#9F9F87" stroke="#24251B" stroke-width="1.2832" stroke-linejoin="round" stroke-miterlimit="10" d="
		M503.15,357.284c1.872,0,3.665-0.742,4.987-2.064c1.323-1.321,2.066-3.116,2.066-4.987c0-1.868-0.743-3.664-2.066-4.986
		c-1.322-1.321-3.115-2.064-4.987-2.064c-1.87,0-3.664,0.743-4.984,2.064c-1.323,1.322-2.067,3.118-2.067,4.986
		c0,1.871,0.744,3.666,2.067,4.987C499.486,356.542,501.28,357.284,503.15,357.284z"/>
</g>
<g>
	<path opacity="0.5" fill="#D4BFBA" stroke="#6A605D" stroke-miterlimit="10" d="M73.93,294.692c2.801,0,5.486-1.114,7.467-3.094
		c1.979-1.98,3.092-4.667,3.092-7.466c0-2.8-1.113-5.488-3.092-7.466c-1.981-1.981-4.666-3.094-7.467-3.094
		c-2.799,0-5.486,1.112-7.466,3.094c-1.98,1.978-3.093,4.666-3.093,7.466c0,2.799,1.113,5.485,3.093,7.466
		C68.444,293.578,71.13,294.692,73.93,294.692z"/>
	<path opacity="0.5" fill="#D4BFBA" stroke="#6A605D" stroke-width="1.2832" stroke-linejoin="round" stroke-miterlimit="10" d="
		M73.93,294.692c2.801,0,5.486-1.114,7.467-3.094c1.979-1.98,3.092-4.667,3.092-7.466c0-2.8-1.113-5.488-3.092-7.466
		c-1.981-1.981-4.666-3.094-7.467-3.094c-2.799,0-5.486,1.112-7.466,3.094c-1.98,1.978-3.093,4.666-3.093,7.466
		c0,2.799,1.113,5.485,3.093,7.466C68.444,293.578,71.13,294.692,73.93,294.692z"/>
</g>
<g>
	<path opacity="0.5" fill="#D4BFBA" stroke="#6A605D" stroke-miterlimit="10" d="M77.642,319.329c2.773,0,5.432-1.102,7.392-3.064
		c1.96-1.96,3.062-4.618,3.062-7.391c0-2.771-1.102-5.432-3.062-7.392c-1.96-1.961-4.619-3.062-7.392-3.062
		c-2.772,0-5.431,1.101-7.391,3.062c-1.961,1.96-3.063,4.621-3.063,7.392c0,2.772,1.102,5.431,3.063,7.391
		C72.211,318.228,74.87,319.329,77.642,319.329z"/>
	<path opacity="0.5" fill="#D4BFBA" stroke="#6A605D" stroke-width="1.2832" stroke-linejoin="round" stroke-miterlimit="10" d="
		M77.642,319.329c2.773,0,5.432-1.102,7.392-3.064c1.96-1.96,3.062-4.618,3.062-7.391c0-2.771-1.102-5.432-3.062-7.392
		c-1.96-1.961-4.619-3.062-7.392-3.062c-2.772,0-5.431,1.101-7.391,3.062c-1.961,1.96-3.063,4.621-3.063,7.392
		c0,2.772,1.102,5.431,3.063,7.391C72.211,318.228,74.87,319.329,77.642,319.329z"/>
</g>
<g>
	<path opacity="0.5" fill="#D4BFBA" stroke="#6A605D" stroke-miterlimit="10" d="M107.53,316.842c2.112,0,4.139-0.841,5.632-2.333
		c1.494-1.494,2.334-3.522,2.334-5.634c0-2.112-0.84-4.139-2.334-5.633c-1.494-1.493-3.52-2.334-5.632-2.334
		c-2.113,0-4.139,0.841-5.632,2.334c-1.495,1.494-2.333,3.521-2.333,5.633c0,2.111,0.838,4.14,2.333,5.634
		C103.391,316.001,105.417,316.842,107.53,316.842z"/>
	<path opacity="0.5" fill="#D4BFBA" stroke="#6A605D" stroke-width="1.2832" stroke-linejoin="round" stroke-miterlimit="10" d="
		M107.53,316.842c2.112,0,4.139-0.841,5.632-2.333c1.494-1.494,2.334-3.522,2.334-5.634c0-2.112-0.84-4.139-2.334-5.633
		c-1.494-1.493-3.52-2.334-5.632-2.334c-2.113,0-4.139,0.841-5.632,2.334c-1.495,1.494-2.333,3.521-2.333,5.633
		c0,2.111,0.838,4.14,2.333,5.634C103.391,316.001,105.417,316.842,107.53,316.842z"/>
</g>
<g>
	<path opacity="0.5" fill="#D4BFBA" stroke="#6A605D" stroke-miterlimit="10" d="M99.563,342.253c1.806,0,3.537-0.717,4.812-1.991
		c1.276-1.276,1.993-3.008,1.993-4.812c0-1.806-0.717-3.536-1.993-4.812c-1.276-1.278-3.007-1.995-4.812-1.995
		c-1.804,0-3.536,0.717-4.811,1.995c-1.276,1.275-1.993,3.006-1.993,4.812c0,1.804,0.717,3.535,1.993,4.812
		C96.028,341.536,97.759,342.253,99.563,342.253z"/>
	<path opacity="0.5" fill="#D4BFBA" stroke="#6A605D" stroke-width="1.2832" stroke-linejoin="round" stroke-miterlimit="10" d="
		M99.563,342.253c1.806,0,3.537-0.717,4.812-1.991c1.276-1.276,1.993-3.008,1.993-4.812c0-1.806-0.717-3.536-1.993-4.812
		c-1.276-1.278-3.007-1.995-4.812-1.995c-1.804,0-3.536,0.717-4.811,1.995c-1.276,1.275-1.993,3.006-1.993,4.812
		c0,1.804,0.717,3.535,1.993,4.812C96.028,341.536,97.759,342.253,99.563,342.253z"/>
</g>
<g>
	<path opacity="0.5" fill="#D4BFBA" stroke="#6A605D" stroke-miterlimit="10" d="M128.059,298.918c1.666,0,3.264-0.661,4.441-1.838
		c1.178-1.18,1.84-2.775,1.84-4.443c0-1.665-0.662-3.263-1.84-4.441c-1.177-1.176-2.775-1.839-4.441-1.839
		c-1.667,0-3.264,0.663-4.442,1.839c-1.178,1.179-1.84,2.776-1.84,4.441c0,1.668,0.662,3.264,1.84,4.443
		C124.795,298.257,126.393,298.918,128.059,298.918z"/>
	<path opacity="0.5" fill="#D4BFBA" stroke="#6A605D" stroke-width="1.2832" stroke-linejoin="round" stroke-miterlimit="10" d="
		M128.059,298.918c1.666,0,3.264-0.661,4.441-1.838c1.178-1.18,1.84-2.775,1.84-4.443c0-1.665-0.662-3.263-1.84-4.441
		c-1.177-1.176-2.775-1.839-4.441-1.839c-1.667,0-3.264,0.663-4.442,1.839c-1.178,1.179-1.84,2.776-1.84,4.441
		c0,1.668,0.662,3.264,1.84,4.443C124.795,298.257,126.393,298.918,128.059,298.918z"/>
</g>
<g>
	<path opacity="0.5" fill="#D4BFBA" stroke="#6A605D" stroke-miterlimit="10" d="M97.068,292.638c1.514,0,2.966-0.603,4.036-1.674
		c1.07-1.069,1.672-2.521,1.672-4.036c0-1.514-0.602-2.965-1.672-4.036c-1.07-1.07-2.522-1.672-4.036-1.672
		s-2.967,0.602-4.038,1.672c-1.069,1.071-1.671,2.522-1.671,4.036c0,1.516,0.602,2.967,1.671,4.036
		C94.102,292.035,95.555,292.638,97.068,292.638z"/>
	<path opacity="0.5" fill="#D4BFBA" stroke="#6A605D" stroke-width="1.2832" stroke-linejoin="round" stroke-miterlimit="10" d="
		M97.068,292.638c1.514,0,2.966-0.603,4.036-1.674c1.07-1.069,1.672-2.521,1.672-4.036c0-1.514-0.602-2.965-1.672-4.036
		c-1.07-1.07-2.522-1.672-4.036-1.672s-2.967,0.602-4.038,1.672c-1.069,1.071-1.671,2.522-1.671,4.036
		c0,1.516,0.602,2.967,1.671,4.036C94.102,292.035,95.555,292.638,97.068,292.638z"/>
</g>
</svg>
